
<svg width="196px" height="44px" viewBox="0 0 196 44" version="1.1" xmlns="http://www.w3.org/2000/svg" xmlns:xlink="http://www.w3.org/1999/xlink">
    <g id="Website" stroke="none" stroke-width="1" fill="none" fill-rule="evenodd">
        <g id="Sleepless-Test-Homepage-Hover-States" transform="translate(-217.000000, -31.000000)" fill="#406061" fill-rule="nonzero">
            <g id="Group-5" transform="translate(217.000000, 31.000000)">
                <g id="Group-6" transform="translate(0.704000, 0.120000)">
                    <path d="M9.536,23.136 C10.6453333,23.136 11.7066667,23.0133333 12.72,22.768 C13.7333333,22.5226667 14.6293333,22.1333333 15.408,21.6 C16.1866667,21.0666667 16.8053333,20.368 17.264,19.504 C17.7226667,18.64 17.952,17.6 17.952,16.384 C17.952,15.3386667 17.7813333,14.4586667 17.44,13.744 C17.0986667,13.0293333 16.6133333,12.416 15.984,11.904 C15.3546667,11.392 14.5866667,10.9653333 13.68,10.624 C12.7733333,10.2826667 11.7653333,9.96266667 10.656,9.664 C9.80266667,9.45066667 9.05066667,9.248 8.4,9.056 C7.74933333,8.864 7.21066667,8.65066667 6.784,8.416 C6.35733333,8.18133333 6.032,7.90933333 5.808,7.6 C5.584,7.29066667 5.472,6.90133333 5.472,6.432 C5.472,5.62133333 5.77066667,4.992 6.368,4.544 C6.96533333,4.096 7.872,3.872 9.088,3.872 C9.77066667,3.872 10.4426667,3.95733333 11.104,4.128 C11.7653333,4.29866667 12.3786667,4.50666667 12.944,4.752 C13.5093333,4.99733333 13.9893333,5.248 14.384,5.504 C14.7786667,5.76 15.0506667,5.96266667 15.2,6.112 L15.2,6.112 L17.152,2.528 C16.1493333,1.84533333 14.976,1.25333333 13.632,0.752 C12.288,0.250666667 10.816,-1.77635684e-15 9.216,-1.77635684e-15 C8.064,-1.77635684e-15 6.98666667,0.154666667 5.984,0.464 C4.98133333,0.773333333 4.10133333,1.22666667 3.344,1.824 C2.58666667,2.42133333 1.99466667,3.168 1.568,4.064 C1.14133333,4.96 0.928,5.984 0.928,7.136 C0.928,8.01066667 1.06133333,8.76266667 1.328,9.392 C1.59466667,10.0213333 1.99466667,10.576 2.528,11.056 C3.06133333,11.536 3.728,11.952 4.528,12.304 C5.328,12.656 6.272,12.9813333 7.36,13.28 C8.256,13.536 9.06666667,13.7706667 9.792,13.984 C10.5173333,14.1973333 11.136,14.432 11.648,14.688 C12.16,14.944 12.5546667,15.2426667 12.832,15.584 C13.1093333,15.9253333 13.248,16.3413333 13.248,16.832 C13.248,18.3893333 12.032,19.168 9.6,19.168 C8.72533333,19.168 7.872,19.0613333 7.04,18.848 C6.208,18.6346667 5.45066667,18.3733333 4.768,18.064 C4.08533333,17.7546667 3.49333333,17.4453333 2.992,17.136 C2.49066667,16.8266667 2.144,16.576 1.952,16.384 L1.952,16.384 L4.12114787e-13,20.192 C1.32266667,21.1306667 2.816,21.856 4.48,22.368 C6.144,22.88 7.82933333,23.136 9.536,23.136 Z M40.1035294,22.88 L40.1035294,19.008 L28.5195294,19.008 L28.5195294,0.16 L24.1035294,0.16 L24.1035294,22.88 L40.1035294,22.88 Z M61.3910588,22.88 L61.3910588,19.008 L50.0310588,19.008 L50.0310588,13.088 L59.5990588,13.088 L59.5990588,9.504 L50.0310588,9.504 L50.0310588,4.032 L61.1030588,4.032 L61.1030588,0.16 L45.6150588,0.16 L45.6150588,22.88 L61.3910588,22.88 Z M83.4465882,22.88 L83.4465882,19.008 L72.0865882,19.008 L72.0865882,13.088 L81.6545882,13.088 L81.6545882,9.504 L72.0865882,9.504 L72.0865882,4.032 L83.1585882,4.032 L83.1585882,0.16 L67.6705882,0.16 L67.6705882,22.88 L83.4465882,22.88 Z M94.1421176,22.88 L94.1421176,15.264 L99.5181176,15.264 C100.563451,15.264 101.523451,15.0506667 102.398118,14.624 C103.272784,14.1973333 104.019451,13.632 104.638118,12.928 C105.256784,12.224 105.736784,11.4186667 106.078118,10.512 C106.419451,9.60533333 106.590118,8.672 106.590118,7.712 C106.590118,6.79466667 106.408784,5.88266667 106.046118,4.976 C105.683451,4.06933333 105.182118,3.25866667 104.542118,2.544 C103.902118,1.82933333 103.139451,1.25333333 102.254118,0.816 C101.368784,0.378666667 100.403451,0.16 99.3581176,0.16 L99.3581176,0.16 L89.7261176,0.16 L89.7261176,22.88 L94.1421176,22.88 Z M99.2621176,11.392 L94.1421176,11.392 L94.1421176,4.032 L99.0701176,4.032 C99.4541176,4.032 99.8327843,4.112 100.206118,4.272 C100.579451,4.432 100.904784,4.672 101.182118,4.992 C101.459451,5.312 101.683451,5.70133333 101.854118,6.16 C102.024784,6.61866667 102.110118,7.136 102.110118,7.712 C102.110118,8.84266667 101.838118,9.73866667 101.294118,10.4 C100.750118,11.0613333 100.072784,11.392 99.2621176,11.392 L99.2621176,11.392 Z M128.485647,22.88 L128.485647,19.008 L116.901647,19.008 L116.901647,0.16 L112.485647,0.16 L112.485647,22.88 L128.485647,22.88 Z M149.773176,22.88 L149.773176,19.008 L138.413176,19.008 L138.413176,13.088 L147.981176,13.088 L147.981176,9.504 L138.413176,9.504 L138.413176,4.032 L149.485176,4.032 L149.485176,0.16 L133.997176,0.16 L133.997176,22.88 L149.773176,22.88 Z M163.444706,23.136 C164.554039,23.136 165.615373,23.0133333 166.628706,22.768 C167.642039,22.5226667 168.538039,22.1333333 169.316706,21.6 C170.095373,21.0666667 170.714039,20.368 171.172706,19.504 C171.631373,18.64 171.860706,17.6 171.860706,16.384 C171.860706,15.3386667 171.690039,14.4586667 171.348706,13.744 C171.007373,13.0293333 170.522039,12.416 169.892706,11.904 C169.263373,11.392 168.495373,10.9653333 167.588706,10.624 C166.682039,10.2826667 165.674039,9.96266667 164.564706,9.664 C163.711373,9.45066667 162.959373,9.248 162.308706,9.056 C161.658039,8.864 161.119373,8.65066667 160.692706,8.416 C160.266039,8.18133333 159.940706,7.90933333 159.716706,7.6 C159.492706,7.29066667 159.380706,6.90133333 159.380706,6.432 C159.380706,5.62133333 159.679373,4.992 160.276706,4.544 C160.874039,4.096 161.780706,3.872 162.996706,3.872 C163.679373,3.872 164.351373,3.95733333 165.012706,4.128 C165.674039,4.29866667 166.287373,4.50666667 166.852706,4.752 C167.418039,4.99733333 167.898039,5.248 168.292706,5.504 C168.687373,5.76 168.959373,5.96266667 169.108706,6.112 L169.108706,6.112 L171.060706,2.528 C170.058039,1.84533333 168.884706,1.25333333 167.540706,0.752 C166.196706,0.250666667 164.724706,-1.77635684e-15 163.124706,-1.77635684e-15 C161.972706,-1.77635684e-15 160.895373,0.154666667 159.892706,0.464 C158.890039,0.773333333 158.010039,1.22666667 157.252706,1.824 C156.495373,2.42133333 155.903373,3.168 155.476706,4.064 C155.050039,4.96 154.836706,5.984 154.836706,7.136 C154.836706,8.01066667 154.970039,8.76266667 155.236706,9.392 C155.503373,10.0213333 155.903373,10.576 156.436706,11.056 C156.970039,11.536 157.636706,11.952 158.436706,12.304 C159.236706,12.656 160.180706,12.9813333 161.268706,13.28 C162.164706,13.536 162.975373,13.7706667 163.700706,13.984 C164.426039,14.1973333 165.044706,14.432 165.556706,14.688 C166.068706,14.944 166.463373,15.2426667 166.740706,15.584 C167.018039,15.9253333 167.156706,16.3413333 167.156706,16.832 C167.156706,18.3893333 165.940706,19.168 163.508706,19.168 C162.634039,19.168 161.780706,19.0613333 160.948706,18.848 C160.116706,18.6346667 159.359373,18.3733333 158.676706,18.064 C157.994039,17.7546667 157.402039,17.4453333 156.900706,17.136 C156.399373,16.8266667 156.052706,16.576 155.860706,16.384 L155.860706,16.384 L153.908706,20.192 C155.231373,21.1306667 156.724706,21.856 158.388706,22.368 C160.052706,22.88 161.738039,23.136 163.444706,23.136 Z M185.884235,23.136 C186.993569,23.136 188.054902,23.0133333 189.068235,22.768 C190.081569,22.5226667 190.977569,22.1333333 191.756235,21.6 C192.534902,21.0666667 193.153569,20.368 193.612235,19.504 C194.070902,18.64 194.300235,17.6 194.300235,16.384 C194.300235,15.3386667 194.129569,14.4586667 193.788235,13.744 C193.446902,13.0293333 192.961569,12.416 192.332235,11.904 C191.702902,11.392 190.934902,10.9653333 190.028235,10.624 C189.121569,10.2826667 188.113569,9.96266667 187.004235,9.664 C186.150902,9.45066667 185.398902,9.248 184.748235,9.056 C184.097569,8.864 183.558902,8.65066667 183.132235,8.416 C182.705569,8.18133333 182.380235,7.90933333 182.156235,7.6 C181.932235,7.29066667 181.820235,6.90133333 181.820235,6.432 C181.820235,5.62133333 182.118902,4.992 182.716235,4.544 C183.313569,4.096 184.220235,3.872 185.436235,3.872 C186.118902,3.872 186.790902,3.95733333 187.452235,4.128 C188.113569,4.29866667 188.726902,4.50666667 189.292235,4.752 C189.857569,4.99733333 190.337569,5.248 190.732235,5.504 C191.126902,5.76 191.398902,5.96266667 191.548235,6.112 L191.548235,6.112 L193.500235,2.528 C192.497569,1.84533333 191.324235,1.25333333 189.980235,0.752 C188.636235,0.250666667 187.164235,-1.77635684e-15 185.564235,-1.77635684e-15 C184.412235,-1.77635684e-15 183.334902,0.154666667 182.332235,0.464 C181.329569,0.773333333 180.449569,1.22666667 179.692235,1.824 C178.934902,2.42133333 178.342902,3.168 177.916235,4.064 C177.489569,4.96 177.276235,5.984 177.276235,7.136 C177.276235,8.01066667 177.409569,8.76266667 177.676235,9.392 C177.942902,10.0213333 178.342902,10.576 178.876235,11.056 C179.409569,11.536 180.076235,11.952 180.876235,12.304 C181.676235,12.656 182.620235,12.9813333 183.708235,13.28 C184.604235,13.536 185.414902,13.7706667 186.140235,13.984 C186.865569,14.1973333 187.484235,14.432 187.996235,14.688 C188.508235,14.944 188.902902,15.2426667 189.180235,15.584 C189.457569,15.9253333 189.596235,16.3413333 189.596235,16.832 C189.596235,18.3893333 188.380235,19.168 185.948235,19.168 C185.073569,19.168 184.220235,19.0613333 183.388235,18.848 C182.556235,18.6346667 181.798902,18.3733333 181.116235,18.064 C180.433569,17.7546667 179.841569,17.4453333 179.340235,17.136 C178.838902,16.8266667 178.492235,16.576 178.300235,16.384 L178.300235,16.384 L176.348235,20.192 C177.670902,21.1306667 179.164235,21.856 180.828235,22.368 C182.492235,22.88 184.177569,23.136 185.884235,23.136 Z" id="SLEEPLESS"></path>
                    <path d="M17.52,41.88 L17.52,34.32 L20.46,34.32 L20.46,33.36 L13.5,33.36 L13.5,34.32 L16.44,34.32 L16.44,41.88 L17.52,41.88 Z M34.714645,41.88 L34.714645,40.92 L30.010645,40.92 L30.010645,37.98 L34.006645,37.98 L34.006645,37.08 L30.010645,37.08 L30.010645,34.32 L34.606645,34.32 L34.606645,33.36 L28.930645,33.36 L28.930645,41.88 L34.714645,41.88 Z M46.23329,41.964 C46.67329,41.964 47.08129,41.918 47.45729,41.826 C47.83329,41.734 48.15929,41.59 48.43529,41.394 C48.71129,41.198 48.92929,40.95 49.08929,40.65 C49.24929,40.35 49.32929,39.996 49.32929,39.588 C49.32929,39.204 49.26329,38.88 49.13129,38.616 C48.99929,38.352 48.80729,38.128 48.55529,37.944 C48.30329,37.76 47.99929,37.606 47.64329,37.482 C47.28729,37.358 46.88929,37.248 46.44929,37.152 C46.06529,37.064 45.73329,36.98 45.45329,36.9 C45.17329,36.82 44.93929,36.726 44.75129,36.618 C44.56329,36.51 44.42529,36.38 44.33729,36.228 C44.24929,36.076 44.20529,35.884 44.20529,35.652 C44.20529,35.22 44.35929,34.88 44.66729,34.632 C44.97529,34.384 45.46129,34.26 46.12529,34.26 C46.38129,34.26 46.62729,34.286 46.86329,34.338 C47.09929,34.39 47.31729,34.458 47.51729,34.542 C47.71729,34.626 47.89729,34.72 48.05729,34.824 C48.21729,34.928 48.34529,35.036 48.44129,35.148 L48.44129,35.148 L48.94529,34.272 C48.58529,33.976 48.17329,33.74 47.70929,33.564 C47.24529,33.388 46.72529,33.3 46.14929,33.3 C45.70929,33.3 45.30129,33.354 44.92529,33.462 C44.54929,33.57 44.22529,33.732 43.95329,33.948 C43.68129,34.164 43.46929,34.428 43.31729,34.74 C43.16529,35.052 43.08929,35.412 43.08929,35.82 C43.08929,36.156 43.14529,36.444 43.25729,36.684 C43.36929,36.924 43.53529,37.128 43.75529,37.296 C43.97529,37.464 44.24929,37.608 44.57729,37.728 C44.90529,37.848 45.28529,37.96 45.71729,38.064 C46.10929,38.16 46.45929,38.254 46.76729,38.346 C47.07529,38.438 47.33329,38.544 47.54129,38.664 C47.74929,38.784 47.90729,38.926 48.01529,39.09 C48.12329,39.254 48.17729,39.456 48.17729,39.696 C48.17729,40.128 48.00929,40.452 47.67329,40.668 C47.33729,40.884 46.86529,40.992 46.25729,40.992 C45.92929,40.992 45.61529,40.958 45.31529,40.89 C45.01529,40.822 44.73529,40.734 44.47529,40.626 C44.21529,40.518 43.98329,40.396 43.77929,40.26 C43.57529,40.124 43.40929,39.988 43.28129,39.852 L43.28129,39.852 L42.76529,40.764 C43.24529,41.156 43.77929,41.454 44.36729,41.658 C44.95529,41.862 45.57729,41.964 46.23329,41.964 Z M61.195935,41.88 L61.195935,34.32 L64.135935,34.32 L64.135935,33.36 L57.175935,33.36 L57.175935,34.32 L60.115935,34.32 L60.115935,41.88 L61.195935,41.88 Z M83.609225,41.88 L83.609225,38.82 L86.153225,38.82 C86.529225,38.82 86.871225,38.744 87.179225,38.592 C87.487225,38.44 87.751225,38.236 87.971225,37.98 C88.191225,37.724 88.361225,37.432 88.481225,37.104 C88.601225,36.776 88.661225,36.436 88.661225,36.084 C88.661225,35.748 88.597225,35.418 88.469225,35.094 C88.341225,34.77 88.163225,34.478 87.935225,34.218 C87.707225,33.958 87.435225,33.75 87.119225,33.594 C86.803225,33.438 86.457225,33.36 86.081225,33.36 L86.081225,33.36 L82.529225,33.36 L82.529225,41.88 L83.609225,41.88 Z M86.093225,37.86 L83.609225,37.86 L83.609225,34.32 L86.021225,34.32 C86.229225,34.32 86.427225,34.364 86.615225,34.452 C86.803225,34.54 86.967225,34.664 87.107225,34.824 C87.247225,34.984 87.359225,35.172 87.443225,35.388 C87.527225,35.604 87.569225,35.836 87.569225,36.084 C87.569225,36.324 87.533225,36.552 87.461225,36.768 C87.389225,36.984 87.289225,37.174 87.161225,37.338 C87.033225,37.502 86.879225,37.63 86.699225,37.722 C86.519225,37.814 86.317225,37.86 86.093225,37.86 L86.093225,37.86 Z M98.33187,41.88 L98.33187,38.82 L100.58787,38.82 L102.53187,41.88 L103.75587,41.88 L101.69187,38.616 C101.96387,38.544 102.20987,38.428 102.42987,38.268 C102.64987,38.108 102.83787,37.916 102.99387,37.692 C103.14987,37.468 103.26987,37.218 103.35387,36.942 C103.43787,36.666 103.47987,36.38 103.47987,36.084 C103.47987,35.748 103.41587,35.418 103.28787,35.094 C103.15987,34.77 102.98187,34.478 102.75387,34.218 C102.52587,33.958 102.25387,33.75 101.93787,33.594 C101.62187,33.438 101.27587,33.36 100.89987,33.36 L100.89987,33.36 L97.25187,33.36 L97.25187,41.88 L98.33187,41.88 Z M100.91187,37.86 L98.33187,37.86 L98.33187,34.32 L100.83987,34.32 C101.04787,34.32 101.24587,34.366 101.43387,34.458 C101.62187,34.55 101.78587,34.678 101.92587,34.842 C102.06587,35.006 102.17787,35.194 102.26187,35.406 C102.34587,35.618 102.38787,35.844 102.38787,36.084 C102.38787,36.316 102.35187,36.54 102.27987,36.756 C102.20787,36.972 102.10787,37.162 101.97987,37.326 C101.85187,37.49 101.69787,37.62 101.51787,37.716 C101.33787,37.812 101.13587,37.86 100.91187,37.86 L100.91187,37.86 Z M115.838515,41.94 C116.414515,41.94 116.948515,41.822 117.440515,41.586 C117.932515,41.35 118.356515,41.034 118.712515,40.638 C119.068515,40.242 119.348515,39.784 119.552515,39.264 C119.756515,38.744 119.858515,38.2 119.858515,37.632 C119.858515,37.096 119.762515,36.57 119.570515,36.054 C119.378515,35.538 119.106515,35.076 118.754515,34.668 C118.402515,34.26 117.982515,33.93 117.494515,33.678 C117.006515,33.426 116.462515,33.3 115.862515,33.3 C115.286515,33.3 114.752515,33.418 114.260515,33.654 C113.768515,33.89 113.342515,34.208 112.982515,34.608 C112.622515,35.008 112.340515,35.468 112.136515,35.988 C111.932515,36.508 111.830515,37.052 111.830515,37.62 C111.830515,38.164 111.926515,38.696 112.118515,39.216 C112.310515,39.736 112.582515,40.198 112.934515,40.602 C113.286515,41.006 113.708515,41.33 114.200515,41.574 C114.692515,41.818 115.238515,41.94 115.838515,41.94 Z M115.850515,40.968 C115.410515,40.968 115.010515,40.876 114.650515,40.692 C114.290515,40.508 113.982515,40.26 113.726515,39.948 C113.470515,39.636 113.272515,39.278 113.132515,38.874 C112.992515,38.47 112.922515,38.052 112.922515,37.62 C112.922515,37.204 112.990515,36.796 113.126515,36.396 C113.262515,35.996 113.456515,35.64 113.708515,35.328 C113.960515,35.016 114.266515,34.764 114.626515,34.572 C114.986515,34.38 115.394515,34.284 115.850515,34.284 C116.282515,34.284 116.676515,34.376 117.032515,34.56 C117.388515,34.744 117.696515,34.99 117.956515,35.298 C118.216515,35.606 118.416515,35.962 118.556515,36.366 C118.696515,36.77 118.766515,37.188 118.766515,37.62 C118.766515,38.028 118.700515,38.432 118.568515,38.832 C118.436515,39.232 118.244515,39.59 117.992515,39.906 C117.740515,40.222 117.434515,40.478 117.074515,40.674 C116.714515,40.87 116.306515,40.968 115.850515,40.968 Z M129.30116,42.012 C129.94916,42.012 130.46316,41.908 130.84316,41.7 C131.22316,41.492 131.51516,41.2 131.71916,40.824 C131.92316,40.448 132.05516,39.994 132.11516,39.462 C132.17516,38.93 132.20516,38.34 132.20516,37.692 L132.20516,37.692 L132.20516,33.36 L131.12516,33.36 L131.12516,37.692 C131.12516,38.236 131.10516,38.716 131.06516,39.132 C131.02516,39.548 130.94316,39.898 130.81916,40.182 C130.69516,40.466 130.51316,40.68 130.27316,40.824 C130.03316,40.968 129.70916,41.04 129.30116,41.04 C128.95716,41.04 128.64916,40.996 128.37716,40.908 C128.10516,40.82 127.88916,40.72 127.72916,40.608 L127.72916,40.608 L127.45316,41.484 C127.96516,41.836 128.58116,42.012 129.30116,42.012 Z M147.179805,41.88 L147.179805,40.92 L142.475805,40.92 L142.475805,37.98 L146.471805,37.98 L146.471805,37.08 L142.475805,37.08 L142.475805,34.32 L147.071805,34.32 L147.071805,33.36 L141.395805,33.36 L141.395805,41.88 L147.179805,41.88 Z M159.17845,41.952 C159.50645,41.952 159.84245,41.908 160.18645,41.82 C160.53045,41.732 160.85645,41.604 161.16445,41.436 C161.47245,41.268 161.74845,41.062 161.99245,40.818 C162.23645,40.574 162.42645,40.292 162.56245,39.972 L162.56245,39.972 L161.66245,39.48 C161.54245,39.744 161.38845,39.97 161.20045,40.158 C161.01245,40.346 160.81045,40.502 160.59445,40.626 C160.37845,40.75 160.15245,40.84 159.91645,40.896 C159.68045,40.952 159.45045,40.98 159.22645,40.98 C158.80245,40.98 158.41045,40.888 158.05045,40.704 C157.69045,40.52 157.37845,40.272 157.11445,39.96 C156.85045,39.648 156.64445,39.29 156.49645,38.886 C156.34845,38.482 156.27445,38.056 156.27445,37.608 C156.27445,37.208 156.33645,36.81 156.46045,36.414 C156.58445,36.018 156.77045,35.662 157.01845,35.346 C157.26645,35.03 157.57245,34.774 157.93645,34.578 C158.30045,34.382 158.71845,34.284 159.19045,34.284 C159.40645,34.284 159.62645,34.308 159.85045,34.356 C160.07445,34.404 160.29245,34.484 160.50445,34.596 C160.71645,34.708 160.91245,34.856 161.09245,35.04 C161.27245,35.224 161.42645,35.452 161.55445,35.724 L161.55445,35.724 L162.40645,35.172 C162.14245,34.62 161.73845,34.172 161.19445,33.828 C160.65045,33.484 159.99845,33.312 159.23845,33.312 C158.59845,33.312 158.02645,33.436 157.52245,33.684 C157.01845,33.932 156.59245,34.258 156.24445,34.662 C155.89645,35.066 155.63245,35.522 155.45245,36.03 C155.27245,36.538 155.18245,37.048 155.18245,37.56 C155.18245,38.104 155.28045,38.638 155.47645,39.162 C155.67245,39.686 155.94845,40.154 156.30445,40.566 C156.66045,40.978 157.08245,41.312 157.57045,41.568 C158.05845,41.824 158.59445,41.952 159.17845,41.952 Z M174.369095,41.88 L174.369095,34.32 L177.309095,34.32 L177.309095,33.36 L170.349095,33.36 L170.349095,34.32 L173.289095,34.32 L173.289095,41.88 L174.369095,41.88 Z" id="TESTPROJECT"></path>
                </g>
            </g>
        </g>
    </g>
</svg>